# xmcd
#
# Track frame offsets:
#	150
#	25062
#	40967
#	58661
#	77304
#	96212
#	113202
#	127228
#	145419
#	161498
#	177673
#	198104
#	217149
#	236156
#	250828
#	270664
#	290796
#
# Disc length: 4116 seconds
# Revision: 4
# Processed by: cddbd v1.5.2PL0 Copyright (c) Steve Scherf et al.
# Submitted via: dBpowerAMP V12.0
#
DISCID=03101211
DTITLE=Faith Hill - Breathe
DYEAR=1999
DGENRE=Country
TTITLE0=What's In It For Me
TTITLE1=I Got My Baby
TTITLE2=Love Is A Sweet Thing
TTITLE3=Breathe
TTITLE4=Let's Make Love
TTITLE5=It Will Be Me
TTITLE6=The Way You Love Me
TTITLE7=If I'm Not In Love
TTITLE8=Bringing Out The Elvis
TTITLE9=If My Heart Had Wings
TTITLE10=If I Should Fall Behind
TTITLE11=That's How Love Moves
TTITLE12=There Will Come A Day
TTITLE13=This Kiss [Radio Version]
TTITLE14=Let Me Let Go
TTITLE15=Just To Hear You Say That You Love Me
TTITLE16=Breathe (Hex Hector radio edit #1)
EXTD=
EXTT0=
EXTT1=
EXTT2=
EXTT3=
EXTT4=
EXTT5=
EXTT6=
EXTT7=
EXTT8=
EXTT9=
EXTT10=
EXTT11=
EXTT12=
EXTT13=
EXTT14=
EXTT15=
EXTT16=
PLAYORDER=
